# xmcd CD database file generated by OrangeCD 6.3
#
# Track frame offsets:
#	150
#	45477
#	120748
#	173677
#
# Disc length: 3227 seconds
#
# Revision: 1
# Processed by: cddbd v1.5.2PL0 Copyright (c) Steve Scherf et al.
# Submitted via: OrangeCD 6.3
#
DISCID=290c9904
DTITLE=Roy Eldridge - Decidedly
DYEAR=1975
DGENRE=Jazz
TTITLE0=Bee's Bloos
TTITLE1=Lover Man (Oh, where can you be?)
TTITLE2=Undecided
TTITLE3=Hackensack
EXTD=
EXTT0=
EXTT1=
EXTT2=
EXTT3=
PLAYORDER=
